P2
# Une image 3x2
3 2
255
0 255 128
128 128 255